<mxfile host="65bd71144e">
    <diagram id="Zn2ewRhtiWi0JB1W0ikD" name="Page-1">
        <mxGraphModel dx="292" dy="165" grid="1" gridSize="10" guides="1" tooltips="1" connect="1" arrows="1" fold="1" page="1" pageScale="1" pageWidth="850" pageHeight="1100" math="0" shadow="0">
            <root>
                <mxCell id="0"/>
                <mxCell id="1" parent="0"/>
                <mxCell id="2" value="" style="edgeStyle=none;html=1;" edge="1" parent="1" source="3" target="5">
                    <mxGeometry relative="1" as="geometry"/>
                </mxCell>
                <mxCell id="3" value="Начало" style="ellipse;whiteSpace=wrap;html=1;" vertex="1" parent="1">
                    <mxGeometry x="180" y="30" width="80" height="40" as="geometry"/>
                </mxCell>
                <mxCell id="4" value="" style="edgeStyle=none;html=1;fontSize=13;" edge="1" parent="1" source="5" target="10">
                    <mxGeometry relative="1" as="geometry"/>
                </mxCell>
                <mxCell id="5" value="Ввод исходного &lt;br&gt;&lt;font style=&quot;font-size: 12px&quot;&gt;массива строк&lt;br&gt;&lt;font style=&quot;text-align: left&quot;&gt;initialArra&lt;/font&gt;&lt;span style=&quot;text-align: left&quot;&gt;y[]={n..nn}&lt;/span&gt;&lt;br&gt;&lt;/font&gt;" style="shape=parallelogram;perimeter=parallelogramPerimeter;whiteSpace=wrap;html=1;fixedSize=1;" vertex="1" parent="1">
                    <mxGeometry x="128.13" y="90" width="183.75" height="60" as="geometry"/>
                </mxCell>
                <mxCell id="6" value="" style="edgeStyle=none;html=1;fontSize=13;" edge="1" parent="1" source="8" target="13">
                    <mxGeometry relative="1" as="geometry"/>
                </mxCell>
                <mxCell id="7" style="edgeStyle=none;html=1;entryX=0.5;entryY=0;entryDx=0;entryDy=0;fontSize=13;" edge="1" parent="1" source="8" target="19">
                    <mxGeometry relative="1" as="geometry">
                        <Array as="points">
                            <mxPoint x="430" y="300"/>
                            <mxPoint x="430" y="610"/>
                            <mxPoint x="220" y="610"/>
                        </Array>
                    </mxGeometry>
                </mxCell>
                <mxCell id="8" value="i&amp;lt;&lt;font style=&quot;font-size: 12px ; text-align: left&quot;&gt;initialArra&lt;/font&gt;&lt;span style=&quot;font-size: 12px ; text-align: left&quot;&gt;y.Length&lt;/span&gt;" style="shape=hexagon;perimeter=hexagonPerimeter2;whiteSpace=wrap;html=1;fixedSize=1;fontSize=13;" vertex="1" parent="1">
                    <mxGeometry x="160" y="260" width="120" height="80" as="geometry"/>
                </mxCell>
                <mxCell id="9" value="" style="edgeStyle=none;html=1;fontSize=13;" edge="1" parent="1" source="10" target="8">
                    <mxGeometry relative="1" as="geometry"/>
                </mxCell>
                <mxCell id="10" value="i=0&lt;br&gt;stringResult=&quot;&quot;" style="whiteSpace=wrap;html=1;" vertex="1" parent="1">
                    <mxGeometry x="160" y="180" width="120" height="50" as="geometry"/>
                </mxCell>
                <mxCell id="11" value="" style="edgeStyle=none;html=1;fontSize=13;" edge="1" parent="1" source="13" target="15">
                    <mxGeometry relative="1" as="geometry"/>
                </mxCell>
                <mxCell id="12" style="edgeStyle=none;html=1;fontSize=13;entryX=0.5;entryY=0;entryDx=0;entryDy=0;" edge="1" parent="1" source="13" target="17">
                    <mxGeometry relative="1" as="geometry">
                        <mxPoint x="410" y="540" as="targetPoint"/>
                        <Array as="points">
                            <mxPoint x="390" y="405"/>
                            <mxPoint x="390" y="520"/>
                            <mxPoint x="220" y="520"/>
                        </Array>
                    </mxGeometry>
                </mxCell>
                <mxCell id="13" value="&lt;font style=&quot;font-size: 12px ; text-align: left&quot;&gt;initialArra&lt;/font&gt;&lt;span style=&quot;font-size: 12px ; text-align: left&quot;&gt;y[i].length&amp;lt;=3&lt;/span&gt;" style="rhombus;whiteSpace=wrap;html=1;fontSize=13;" vertex="1" parent="1">
                    <mxGeometry x="130" y="370" width="180" height="70" as="geometry"/>
                </mxCell>
                <mxCell id="14" value="" style="edgeStyle=none;html=1;fontSize=13;" edge="1" parent="1" source="15" target="17">
                    <mxGeometry relative="1" as="geometry"/>
                </mxCell>
                <mxCell id="15" value="&lt;span style=&quot;font-size: 12px&quot;&gt;stringResult=&lt;/span&gt;&lt;span style=&quot;font-size: 12px&quot;&gt;stringResult +&amp;nbsp;&lt;/span&gt;&lt;font style=&quot;font-size: 12px ; text-align: left&quot;&gt;initialArra&lt;/font&gt;&lt;span style=&quot;font-size: 12px ; text-align: left&quot;&gt;y[i] + &quot; &quot;&lt;/span&gt;" style="whiteSpace=wrap;html=1;fontSize=13;" vertex="1" parent="1">
                    <mxGeometry x="82.51" y="470" width="275" height="40" as="geometry"/>
                </mxCell>
                <mxCell id="16" style="edgeStyle=none;html=1;entryX=0;entryY=0.5;entryDx=0;entryDy=0;fontSize=13;exitX=0.5;exitY=1;exitDx=0;exitDy=0;" edge="1" parent="1" source="17" target="8">
                    <mxGeometry relative="1" as="geometry">
                        <Array as="points">
                            <mxPoint x="220" y="600"/>
                            <mxPoint x="50" y="600"/>
                            <mxPoint x="50" y="300"/>
                        </Array>
                    </mxGeometry>
                </mxCell>
                <mxCell id="17" value="i++" style="whiteSpace=wrap;html=1;fontSize=13;" vertex="1" parent="1">
                    <mxGeometry x="160.01" y="540" width="120" height="30" as="geometry"/>
                </mxCell>
                <mxCell id="18" value="" style="edgeStyle=none;html=1;fontSize=13;" edge="1" parent="1" source="19" target="23">
                    <mxGeometry relative="1" as="geometry"/>
                </mxCell>
                <mxCell id="19" value="преобразовать&amp;nbsp;&lt;span style=&quot;font-size: 12px&quot;&gt;stringResult&lt;/span&gt;&lt;span style=&quot;font-size: 12px&quot;&gt;&amp;nbsp;&lt;br&gt;&lt;/span&gt;в массив строк shortWordArray&lt;br&gt;с&amp;nbsp;разделением по пробелу&amp;nbsp;" style="whiteSpace=wrap;html=1;fontSize=13;" vertex="1" parent="1">
                    <mxGeometry x="105.01" y="650" width="230" height="80" as="geometry"/>
                </mxCell>
                <mxCell id="20" value="да" style="text;html=1;strokeColor=none;fillColor=none;align=center;verticalAlign=middle;whiteSpace=wrap;rounded=0;fontSize=13;" vertex="1" parent="1">
                    <mxGeometry x="210" y="430" width="60" height="30" as="geometry"/>
                </mxCell>
                <mxCell id="21" value="нет" style="text;html=1;strokeColor=none;fillColor=none;align=center;verticalAlign=middle;whiteSpace=wrap;rounded=0;fontSize=13;" vertex="1" parent="1">
                    <mxGeometry x="290" y="380" width="60" height="30" as="geometry"/>
                </mxCell>
                <mxCell id="22" value="" style="edgeStyle=none;html=1;fontSize=13;" edge="1" parent="1" source="23" target="24">
                    <mxGeometry relative="1" as="geometry"/>
                </mxCell>
                <mxCell id="23" value="Вывод&lt;br&gt;shortWordArray" style="shape=parallelogram;perimeter=parallelogramPerimeter;whiteSpace=wrap;html=1;fixedSize=1;fontSize=13;" vertex="1" parent="1">
                    <mxGeometry x="160" y="770" width="120" height="60" as="geometry"/>
                </mxCell>
                <mxCell id="24" value="Конец" style="ellipse;whiteSpace=wrap;html=1;fontSize=13;" vertex="1" parent="1">
                    <mxGeometry x="170.01" y="870" width="100" height="40" as="geometry"/>
                </mxCell>
                <mxCell id="25" value="Задача: Написать программу, которая из имеющегося массива строк формирует массив из строк, длина которых&lt;br&gt;меньше либо равна 3 символа. Первоначальный массив можно ввести с клавиатуры, либо задать на старте&lt;br&gt;выполнения алгоритма.&amp;nbsp;" style="text;whiteSpace=wrap;html=1;fontSize=13;" vertex="1" parent="1">
                    <mxGeometry x="390" y="50" width="430" height="100" as="geometry"/>
                </mxCell>
            </root>
        </mxGraphModel>
    </diagram>
</mxfile>